<svg xmlns="http://www.w3.org/2000/svg" version="1.1" xmlns:xlink="http://www.w3.org/1999/xlink" xmlns:svgjs="http://svgjs.dev/svgjs" width="2000" height="1357" viewBox="0 0 2000 1357"><g transform="matrix(1,0,0,1,-0.6060110858369399,0.5493927125505706)"><svg viewBox="0 0 364 247" data-background-color="#131313" preserveAspectRatio="xMidYMid meet" height="1357" width="2000" xmlns="http://www.w3.org/2000/svg" xmlns:xlink="http://www.w3.org/1999/xlink"><g id="tight-bounds" transform="matrix(1,0,0,1,0.11029401762232283,-0.09999999999999432)"><svg viewBox="0 0 363.77941866741116 247.2" height="247.2" width="363.77941866741116"><g><svg viewBox="0 0 395.52 268.7687620101166" height="247.2" width="363.77941866741116"><g transform="matrix(1,0,0,1,0,199.31356125611094)"><svg viewBox="0 0 395.52 69.45520075400566" height="69.45520075400566" width="395.52"><g id="textblocktransform"><svg viewBox="0 0 395.52 69.45520075400566" height="69.45520075400566" width="395.52" id="textblock"><g><svg viewBox="0 0 395.52 69.45520075400566" height="69.45520075400566" width="395.52"><g transform="matrix(1,0,0,1,0,0)"><svg width="395.52" viewBox="2.1911805611129997 -38.38 222.008819438887 38.99" height="69.45520075400566" data-palette-color="#f4dcfe"><path d="M13.38 0.59L13.38 0.59Q10.28 0.59 8.24 0.02 6.2-0.54 4.97-1.38 3.74-2.22 3.08-3.05L3.08-3.05Q2.86-3.37 2.69-3.66 2.51-3.96 2.44-4.32L2.44-4.32Q2.34-4.81 2.25-5.6 2.15-6.4 2.22-7.45L2.22-7.45Q2.25-7.89 2.39-8.06L2.39-8.06Q2.56-8.25 2.95-8.35L2.95-8.35Q3.66-8.52 4.8-8.65 5.93-8.79 6.42-8.79L6.42-8.79Q6.93-8.79 7.25-8.59 7.57-8.4 8.01-7.93L8.01-7.93Q8.5-7.42 9.69-6.63 10.89-5.83 13.38-5.83L13.38-5.83Q15.77-5.83 16.99-6.84 18.21-7.84 18.21-9.62L18.21-9.62Q18.21-10.57 17.64-11.41 17.07-12.26 15.55-13.1 14.04-13.94 11.23-14.87L11.23-14.87Q6.59-16.43 4.54-18.75 2.49-21.07 2.49-25.2L2.49-25.2Q2.49-28.61 4.15-30.91 5.81-33.2 8.74-34.38 11.67-35.55 15.5-35.55L15.5-35.55Q18.46-35.55 20.4-34.85 22.34-34.16 23.41-33.29 24.49-32.42 24.8-31.88L24.8-31.88Q25-31.57 25.06-31.41 25.12-31.25 25.15-30.98L25.15-30.98Q25.22-30.22 25.2-29.3 25.17-28.37 25.02-27.2L25.02-27.2Q24.95-26.81 24.76-26.66L24.76-26.66Q24.58-26.54 24.22-26.54L24.22-26.54Q21.85-26.49 20.56-26.78L20.56-26.78Q20.04-26.9 19.87-27.03 19.7-27.15 19.43-27.42L19.43-27.42Q19.04-27.88 18.2-28.5 17.36-29.13 15.5-29.13L15.5-29.13Q12.94-29.13 11.87-27.97 10.79-26.81 10.79-25.37L10.79-25.37Q10.79-23.66 12.38-22.69 13.96-21.73 17.38-20.51L17.38-20.51Q20.24-19.51 22.29-18.33 24.34-17.16 25.43-15.33 26.51-13.5 26.51-10.5L26.51-10.5Q26.51-6.76 24.79-4.3 23.07-1.83 20.1-0.62 17.14 0.59 13.38 0.59ZM43.99 0.61L43.99 0.61Q37.84 0.61 34.25-2.66 30.66-5.93 30.66-12.4L30.66-12.4Q30.66-19.04 34.38-22.33 38.11-25.61 44.33-25.61L44.33-25.61Q50.34-25.61 53.95-22.38 57.57-19.14 57.57-12.84L57.57-12.84Q57.57-6.27 53.95-2.83 50.34 0.61 43.99 0.61ZM44.24-5.3L44.24-5.3Q46.92-5.3 48.29-6.97 49.66-8.64 49.66-12.7L49.66-12.7Q49.66-16.55 48.28-18.13 46.9-19.7 44.19-19.7L44.19-19.7Q41.57-19.7 40.07-18.01 38.57-16.31 38.57-12.5L38.57-12.5Q38.57-8.52 40-6.91 41.43-5.3 44.24-5.3ZM75.26-25.61L75.26-25.61Q78.17-25.61 79.49-25.13 80.81-24.66 81.15-24.39L81.15-24.39Q81.68-24.05 81.98-23.51L81.98-23.51Q82.15-23.24 82.37-22.58 82.59-21.92 82.69-21.14L82.69-21.14Q82.81-20.53 82.71-20.28 82.61-20.02 82.1-19.65L82.1-19.65Q81.51-19.26 80.82-18.96 80.12-18.65 79.68-18.53L79.68-18.53Q79.32-18.43 79.12-18.48 78.93-18.53 78.58-18.77L78.58-18.77Q78.19-19.04 77.49-19.37 76.78-19.7 75.53-19.7L75.53-19.7Q73.95-19.7 72.52-18.92 71.09-18.14 70.2-16.58 69.31-15.01 69.31-12.67L69.31-12.67Q69.31-9.16 71.15-7.23 72.99-5.3 76.09-5.3L76.09-5.3Q77.68-5.3 78.73-5.63 79.78-5.96 80.39-6.3L80.39-6.3Q80.88-6.57 81.14-6.43 81.39-6.3 81.54-5.96L81.54-5.96 83.32-1.93Q83.59-1.29 83.03-1.03L83.03-1.03Q82.12-0.56 80.05 0.02 77.97 0.61 74.92 0.61L74.92 0.61Q68.79 0.61 65.13-2.65 61.47-5.91 61.47-12.4L61.47-12.4Q61.47-16.55 63.15-19.51 64.84-22.46 67.94-24.04 71.04-25.61 75.26-25.61ZM86.17-33.2L86.17-33.2Q86.17-33.52 86.37-33.76 86.56-34.01 86.88-34.4L86.88-34.4Q87.57-35.18 88.47-36.05 89.37-36.91 90.3-37.72L90.3-37.72Q90.89-38.18 91.18-38.18L91.18-38.18Q91.47-38.18 92.08-37.72L92.08-37.72Q94.06-36.01 95.45-34.4L95.45-34.4Q95.77-34.03 95.98-33.78 96.18-33.52 96.18-33.2L96.18-33.2Q96.18-32.89 95.98-32.64 95.77-32.4 95.43-31.98L95.43-31.98Q94.77-31.23 93.89-30.36 93.01-29.49 92.08-28.71L92.08-28.71Q91.74-28.42 91.55-28.33 91.35-28.25 91.18-28.25L91.18-28.25Q91.01-28.25 90.83-28.33 90.64-28.42 90.25-28.71L90.25-28.71Q89.27-29.49 88.42-30.36 87.57-31.23 86.88-32.03L86.88-32.03Q86.56-32.42 86.37-32.65 86.17-32.89 86.17-33.2ZM95.01-23.71L95.01-1.29Q95.01-0.56 94.71-0.28 94.4 0 93.67 0L93.67 0 88.64 0Q87.91 0 87.6-0.28 87.3-0.56 87.3-1.29L87.3-1.29 87.3-23.71Q87.3-24.44 87.6-24.72 87.91-25 88.64-25L88.64-25 93.67-25Q94.4-25 94.71-24.72 95.01-24.44 95.01-23.71L95.01-23.71ZM108.12 0.61L108.12 0.61Q104.53 0.61 102.42-1.4 100.31-3.42 100.31-6.96L100.31-6.96Q100.31-8.79 100.98-10.36 101.65-11.94 103.32-13.15 104.99-14.36 108.01-15.09 111.03-15.82 115.71-15.94L115.71-15.94Q115.71-18.16 114.6-19.14 113.49-20.12 111.27-20.12L111.27-20.12Q109.27-20.12 108-19.43 106.73-18.75 106.41-18.51L106.41-18.51Q106.07-18.21 105.58-18.29L105.58-18.29Q104.92-18.38 104.18-18.63 103.43-18.87 102.58-19.19L102.58-19.19Q102.46-19.24 102.31-19.35 102.16-19.46 102.14-19.68L102.14-19.68Q102.14-19.8 102.16-19.98 102.19-20.17 102.28-20.65L102.28-20.65Q102.38-21.14 102.58-21.86 102.77-22.58 102.94-22.97L102.94-22.97Q103.16-23.39 103.68-23.75L103.68-23.75Q104.09-24.1 106.19-24.85 108.29-25.61 112.27-25.61L112.27-25.61Q123.23-25.61 123.23-14.94L123.23-14.94 123.23-1.12Q123.23-0.66 122.98-0.33 122.72 0 122.11 0L122.11 0 118.45 0Q118.06 0 117.75-0.11 117.45-0.22 117.18-0.54L117.18-0.54 115.66-2.49 115.49-2.49Q114.37-0.85 112.48-0.12 110.59 0.61 108.12 0.61ZM110.81-5.05L110.81-5.05Q113.05-5.05 114.2-6.2 115.35-7.35 115.66-8.57L115.66-8.57 115.66-11.28Q112.27-11.28 110.57-10.75 108.88-10.23 108.32-9.39 107.75-8.54 107.75-7.57L107.75-7.57Q107.75-6.15 108.63-5.6 109.51-5.05 110.81-5.05ZM152.82-21.04L152.82-31.1Q152.82-31.81 153.06-32.18L153.06-32.18Q154.16-33.79 156.14-35.57L156.14-35.57Q156.51-35.86 156.77-35.86L156.77-35.86Q157.07-35.86 157.38-35.57L157.38-35.57Q158.46-34.64 159.19-33.8 159.92-32.96 160.46-32.18L160.46-32.18Q160.71-31.79 160.71-31.1L160.71-31.1 160.71-1.29Q160.71-0.56 160.4-0.28 160.09 0 159.36 0L159.36 0 154.16 0Q153.43 0 153.12-0.28 152.82-0.56 152.82-1.29L152.82-1.29 152.82-14.26 138.32-14.26 138.32-1.29Q138.32-0.56 138.01-0.28 137.71 0 136.97 0L136.97 0 131.77 0Q131.04 0 130.74-0.28 130.43-0.56 130.43-1.29L130.43-1.29 130.43-33.72Q130.43-34.45 130.74-34.73 131.04-35.01 131.77-35.01L131.77-35.01 136.97-35.01Q137.71-35.01 138.01-34.73 138.32-34.45 138.32-33.72L138.32-33.72 138.32-21.04 152.82-21.04ZM176.62 0.61L176.62 0.61Q167.93 0.61 167.93-9.91L167.93-9.91 167.9-22.31Q167.9-22.9 168.15-23.22L168.15-23.22Q169.17-24.56 171.15-26.12L171.15-26.12Q171.49-26.37 171.76-26.37L171.76-26.37Q172.08-26.37 172.37-26.12L172.37-26.12Q173.42-25.32 174.14-24.61 174.86-23.9 175.38-23.22L175.38-23.22Q175.62-22.9 175.62-22.31L175.62-22.31 175.62-10.6Q175.62-5.3 179.82-5.3L179.82-5.3Q181.89-5.3 183.14-6.75 184.38-8.2 184.38-10.69L184.38-10.69 184.38-22.31Q184.38-22.9 184.63-23.22L184.63-23.22Q185.65-24.56 187.63-26.12L187.63-26.12Q187.97-26.37 188.24-26.37L188.24-26.37Q188.56-26.37 188.85-26.12L188.85-26.12Q189.9-25.32 190.62-24.61 191.34-23.9 191.86-23.22L191.86-23.22Q192.1-22.9 192.1-22.31L192.1-22.31 192.1-1.12Q192.1-0.66 191.78-0.33 191.46 0 190.98 0L190.98 0 187.31 0Q186.92 0 186.62-0.11 186.31-0.22 186.04-0.54L186.04-0.54 184.53-2.49 184.36-2.49Q183.97-1.93 183.15-1.2 182.33-0.46 180.78 0.07 179.23 0.61 176.62 0.61ZM210.16 0.61L210.16 0.61Q207.01 0.61 204.87 0.15 202.72-0.32 201.25-1 199.79-1.68 198.69-2.37L198.69-2.37 198.69-34.33Q198.69-34.91 198.93-35.23L198.93-35.23Q199.96-36.57 201.94-38.13L201.94-38.13Q202.28-38.38 202.55-38.38L202.55-38.38Q202.86-38.38 203.16-38.13L203.16-38.13Q204.21-37.33 204.93-36.62 205.65-35.91 206.16-35.23L206.16-35.23Q206.4-34.91 206.4-34.33L206.4-34.33 206.4-22.49 206.5-22.49Q207.48-23.73 209.21-24.67 210.94-25.61 214.05-25.61L214.05-25.61Q217.51-25.61 219.76-24.01 222-22.41 223.1-19.62 224.2-16.82 224.2-13.21L224.2-13.21Q224.2-9.3 222.91-6.16 221.61-3.03 218.55-1.21 215.49 0.61 210.16 0.61ZM210.48-5.3L210.48-5.3Q213.31-5.3 214.8-7.19 216.29-9.08 216.29-12.6L216.29-12.6Q216.29-16.16 214.96-17.77 213.63-19.38 211.12-19.38L211.12-19.38Q209.09-19.38 208.03-18.55 206.96-17.72 206.4-16.46L206.4-16.46 206.4-6.37Q206.94-5.98 207.93-5.64 208.92-5.3 210.48-5.3Z" opacity="1" transform="matrix(1,0,0,1,0,0)" fill="#000000" class="wordmark-text-0" data-fill-palette-color="primary" id="text-0"></path></svg></g></svg></g></svg></g></svg></g><g transform="matrix(1,0,0,1,114.49992534514716,0)"><svg viewBox="0 0 166.52014930970566 166.52014930970566" height="166.52014930970566" width="166.52014930970566"><g><svg></svg></g><g id="icon-0"><svg viewBox="0 0 166.52014930970566 166.52014930970566" height="166.52014930970566" width="166.52014930970566"><g><path d="M0 83.26c0-45.983 37.277-83.26 83.26-83.26 45.983 0 83.26 37.277 83.26 83.26 0 45.983-37.277 83.26-83.26 83.26-45.983 0-83.26-37.277-83.26-83.26zM83.26 160.257c42.524 0 76.997-34.473 76.997-76.997 0-42.524-34.473-76.997-76.997-76.996-42.524 0-76.997 34.473-76.996 76.996 0 42.524 34.473 76.997 76.996 76.997z" data-fill-palette-color="accent" fill="#000000" stroke="transparent"></path></g><g transform="matrix(1,0,0,1,37.45728119353881,37.45725767126022)"><svg viewBox="0 0 91.60558692262804 91.60563396718521" height="91.60563396718521" width="91.60558692262804"><g><svg xmlns="http://www.w3.org/2000/svg" xmlns:xlink="http://www.w3.org/1999/xlink" version="1.1" x="0" y="0" viewBox="4.999802624769675 4.999500000000001 90.00069737523032 90.00074359558756" enable-background="new 0 0 100 100" xml:space="preserve" height="91.60563396718521" width="91.60558692262804" class="icon-dxe-0" data-fill-palette-color="accent" id="dxe-0"><g fill="#eeff5f" data-fill-palette-color="accent"><path d="M5.316 94.538L9.122 68.845C1.46 52.219 4.479 31.881 18.18 18.18 35.754 0.606 64.246 0.606 81.82 18.18S99.394 64.246 81.82 81.82C67.936 95.704 47.237 98.619 30.492 90.565zM23.799 49.684A5.774 5.774 0 1 0 35.347 49.684 5.774 5.774 0 0 0 23.799 49.684M44.361 49.684A5.774 5.774 0 1 0 55.909 49.684 5.774 5.774 0 0 0 44.36 49.684M64.923 49.684A5.774 5.774 0 1 0 76.471 49.684 5.774 5.774 0 0 0 64.923 49.684" fill="#000000" data-fill-palette-color="accent"></path></g></svg></g></svg></g></svg></g></svg></g><g></g></svg></g><defs></defs></svg><rect width="363.77941866741116" height="247.2" fill="none" stroke="none" visibility="hidden"></rect></g></svg></g></svg>